<?xml version="1.0" standalone="no"?>
<!DOCTYPE svg PUBLIC "-//W3C//DTD SVG 20010904//EN"
 "http://www.w3.org/TR/2001/REC-SVG-20010904/DTD/svg10.dtd">
<svg version="1.0" xmlns="http://www.w3.org/2000/svg"
 width="4000.000000pt" height="4000.000000pt" viewBox="0 0 4000.000000 4000.000000"
 preserveAspectRatio="xMidYMid meet">
<metadata>
Created by potrace 1.11, written by Peter Selinger 2001-2013
</metadata>
<g transform="translate(0.000000,4000.000000) scale(0.100000,-0.100000)"
fill="#000000" stroke="none">
<path d="M0 20000 l0 -20000 20000 0 20000 0 0 20000 0 20000 -20000 0 -20000
0 0 -20000z m33250 12405 c151 -9 357 -22 457 -28 l183 -12 -138 -140 c-76
-77 -363 -369 -637 -650 -561 -573 -1350 -1378 -1617 -1650 -98 -100 -207
-212 -244 -250 -36 -39 -172 -178 -302 -310 -130 -132 -342 -348 -471 -480
-129 -132 -339 -346 -466 -475 -128 -129 -668 -680 -1200 -1225 -533 -544
-1050 -1073 -1149 -1174 -100 -101 -201 -204 -226 -230 -54 -55 -453 -464
-775 -791 -126 -129 -441 -451 -700 -715 -258 -264 -580 -592 -715 -730 -135
-137 -459 -468 -720 -735 -261 -267 -565 -577 -676 -690 -111 -113 -265 -270
-343 -350 l-140 -145 -78 80 c-43 44 -116 121 -163 170 -331 350 -586 617
-790 830 -58 61 -173 182 -257 270 -83 88 -154 163 -157 166 -8 8 91 191 155
287 122 183 286 367 527 591 72 66 551 483 581 505 14 11 1538 1532 3386 3381
1848 1849 3439 3435 3535 3526 487 457 780 674 1100 812 227 98 430 144 795
181 102 10 991 -3 1245 -19z m-25875 -5 c834 -54 1523 -288 2195 -748 202
-139 385 -286 605 -489 136 -126 223 -214 515 -523 279 -295 596 -626 850
-889 129 -134 237 -247 240 -252 3 -4 73 -77 155 -161 83 -85 215 -221 295
-304 1696 -1755 3852 -3922 7240 -7278 910 -902 2042 -2025 2515 -2496 473
-471 1031 -1026 1240 -1234 l380 -378 1170 1176 c643 647 1446 1454 1784 1793
338 340 1164 1169 1836 1843 671 674 2175 2184 3342 3355 1166 1172 2665 2677
3331 3345 l1211 1215 1 -12457 0 -12458 -1045 0 -1045 0 0 9625 0 9625 -24 0
c-106 0 -308 -47 -420 -98 -186 -83 -331 -207 -577 -493 -140 -162 -369 -394
-1105 -1124 -1369 -1355 -5617 -5606 -6609 -6613 -473 -480 -911 -916 -974
-970 -256 -219 -504 -352 -741 -396 -95 -18 -279 -21 -366 -5 -237 42 -475
163 -734 373 -68 54 -830 811 -2140 2123 -1119 1121 -4818 4821 -8221 8223
-6382 6380 -6191 6187 -6476 6540 l-23 28 107 16 c241 38 579 72 868 89 129 8
476 6 620 -3z m3918 -9880 c1255 -1257 3842 -3848 5749 -5757 l3467 -3472 -52
-10 c-345 -71 -593 -95 -967 -95 -328 0 -446 9 -705 55 -655 118 -1306 428
-1885 899 -243 197 -427 373 -763 730 -126 135 -269 286 -317 335 -47 50 -124
131 -170 180 -46 50 -133 142 -194 205 -60 63 -157 165 -215 225 -57 61 -139
146 -180 190 -363 381 -1045 1084 -1646 1695 -364 370 -3177 3183 -3790 3790
-1183 1170 -1628 1613 -2550 2532 -539 538 -984 978 -988 978 -4 0 -7 -4444
-7 -9875 l0 -9874 -66 -20 c-36 -12 -129 -36 -207 -55 -519 -127 -1010 -142
-1822 -56 -104 12 -205 23 -222 26 l-33 5 0 12472 1 12472 2640 -2645 c1453
-1455 3668 -3673 4922 -4930z m20287 -10550 l0 -6860 -1068 0 -1069 0 -6 1333
c-16 3232 -19 6122 -8 7082 16 1324 43 2593 61 2845 19 262 87 456 237 685
170 258 370 450 1034 995 282 231 595 527 758 718 30 34 56 62 57 62 2 0 4
-3087 4 -6860z m-22942 6551 c704 -475 1230 -999 1575 -1571 295 -489 482
-1056 551 -1670 41 -357 44 -682 11 -1200 -13 -214 -36 -685 -50 -1030 -46
-1134 -52 -2994 -15 -5200 16 -928 25 -2666 14 -2673 -18 -10 -378 -67 -529
-82 -463 -48 -1136 -31 -1672 41 l-43 5 0 6740 c0 3706 3 6739 6 6739 3 0 71
-45 152 -99z"/>
</g>
</svg>
